G04 #@! TF.GenerationSoftware,KiCad,Pcbnew,(6.0.9)*
G04 #@! TF.CreationDate,2023-01-08T15:38:34+09:00*
G04 #@! TF.ProjectId,BM71-Dongle,424d3731-2d44-46f6-9e67-6c652e6b6963,V2.0*
G04 #@! TF.SameCoordinates,Original*
G04 #@! TF.FileFunction,Copper,L2,Bot*
G04 #@! TF.FilePolarity,Positive*
%FSLAX46Y46*%
G04 Gerber Fmt 4.6, Leading zero omitted, Abs format (unit mm)*
G04 Created by KiCad (PCBNEW (6.0.9)) date 2023-01-08 15:38:34*
%MOMM*%
%LPD*%
G01*
G04 APERTURE LIST*
G04 #@! TA.AperFunction,ComponentPad*
%ADD10R,1.000000X2.500000*%
G04 #@! TD*
G04 #@! TA.AperFunction,SMDPad,CuDef*
%ADD11R,1.600000X0.800000*%
G04 #@! TD*
G04 #@! TA.AperFunction,SMDPad,CuDef*
%ADD12R,0.800000X1.600000*%
G04 #@! TD*
G04 #@! TA.AperFunction,ViaPad*
%ADD13C,0.609600*%
G04 #@! TD*
G04 #@! TA.AperFunction,Conductor*
%ADD14C,0.203200*%
G04 #@! TD*
G04 APERTURE END LIST*
D10*
X2700000Y1800000D03*
X1350000Y1800000D03*
X0Y1800000D03*
X-1350000Y1800000D03*
X-2700000Y1800000D03*
D11*
X4300000Y12200000D03*
X4300000Y11000000D03*
X4300000Y9800000D03*
X4300000Y8600000D03*
X4300000Y7400000D03*
D12*
X3000000Y5700000D03*
X1800000Y5700000D03*
X600000Y5700000D03*
X-600000Y5700000D03*
X-1800000Y5700000D03*
X-3000000Y5700000D03*
D11*
X-4300000Y7400000D03*
X-4300000Y8600000D03*
X-4300000Y9800000D03*
X-4300000Y11000000D03*
X-4300000Y12200000D03*
D13*
X-4500000Y1500000D03*
X4500000Y1500000D03*
X-1995700Y3963900D03*
X-2500000Y8600000D03*
X-2500000Y7750000D03*
X4400000Y4950000D03*
X4400000Y3500000D03*
X2250000Y9600000D03*
X-2500000Y11000000D03*
D14*
X-5500000Y8403200D02*
X-5500000Y6600000D01*
X4300000Y11000000D02*
X5303200Y11000000D01*
X-4300000Y8600000D02*
X-5303200Y8600000D01*
X5500000Y10803200D02*
X5500000Y2850000D01*
X-5303200Y8600000D02*
X-5500000Y8403200D01*
X5303200Y11000000D02*
X5500000Y10803200D01*
X-4300000Y9800000D02*
X-3700000Y9800000D01*
X-3700000Y9800000D02*
X-2500000Y8600000D01*
X-2850000Y7400000D02*
X-2500000Y7750000D01*
X-4300000Y7400000D02*
X-2850000Y7400000D01*
X1129200Y4167600D02*
X4594505Y4167600D01*
X1350000Y1800000D02*
X1350000Y3253200D01*
X4652505Y2890400D02*
X4114400Y2890400D01*
X4114400Y2890400D02*
X3650000Y3354800D01*
X600000Y5700000D02*
X600000Y4696800D01*
X600000Y4696800D02*
X1129200Y4167600D01*
X1350000Y3253200D02*
X1451600Y3354800D01*
X3650000Y3354800D02*
X1451600Y3354800D01*
X4594505Y4167600D02*
X5009600Y3752505D01*
X5009600Y3247495D02*
X4652505Y2890400D01*
X5009600Y3752505D02*
X5009600Y3247495D01*
X0Y3253200D02*
X508000Y3761200D01*
X4138800Y3761200D02*
X4400000Y3500000D01*
X1954800Y4595200D02*
X4045200Y4595200D01*
X0Y1800000D02*
X0Y3253200D01*
X4045200Y4595200D02*
X4400000Y4950000D01*
X1800000Y4750000D02*
X1954800Y4595200D01*
X1800000Y5700000D02*
X1800000Y4750000D01*
X508000Y3761200D02*
X4138800Y3761200D01*
X2250000Y7550000D02*
X2250000Y9600000D01*
X-1800000Y6950000D02*
X-1551600Y7198400D01*
X-1551600Y7198400D02*
X1898400Y7198400D01*
X-1800000Y5700000D02*
X-1800000Y6950000D01*
X1898400Y7198400D02*
X2250000Y7550000D01*
X-2500000Y12000000D02*
X-2700000Y12200000D01*
X-2700000Y12200000D02*
X-4300000Y12200000D01*
X-2500000Y11000000D02*
X-2500000Y12000000D01*
G04 #@! TA.AperFunction,Conductor*
G36*
X-5480300Y6823383D02*
G01*
X-5450897Y6792399D01*
X-5435983Y6763128D01*
X-5435979Y6763123D01*
X-5433292Y6757849D01*
X-5342151Y6666708D01*
X-5227306Y6608191D01*
X-5221459Y6607265D01*
X-5134942Y6593562D01*
X-5134940Y6593562D01*
X-5132024Y6593100D01*
X-3882100Y6593100D01*
X-3833762Y6575507D01*
X-3808042Y6530958D01*
X-3806900Y6517900D01*
X-3806900Y4867976D01*
X-3791809Y4772694D01*
X-3733292Y4657849D01*
X-3642151Y4566708D01*
X-3636875Y4564020D01*
X-3636874Y4564019D01*
X-3589086Y4539670D01*
X-3527306Y4508191D01*
X-3521459Y4507265D01*
X-3434942Y4493562D01*
X-3434940Y4493562D01*
X-3432024Y4493100D01*
X-2567976Y4493100D01*
X-2565060Y4493562D01*
X-2565058Y4493562D01*
X-2528692Y4499322D01*
X-2472694Y4508191D01*
X-2434138Y4527836D01*
X-2383085Y4534106D01*
X-2365866Y4527838D01*
X-2327306Y4508191D01*
X-2271308Y4499322D01*
X-2234942Y4493562D01*
X-2234940Y4493562D01*
X-2232024Y4493100D01*
X-1367976Y4493100D01*
X-1365060Y4493562D01*
X-1365058Y4493562D01*
X-1328692Y4499322D01*
X-1272694Y4508191D01*
X-1234138Y4527836D01*
X-1183085Y4534106D01*
X-1165866Y4527838D01*
X-1127306Y4508191D01*
X-1071308Y4499322D01*
X-1034942Y4493562D01*
X-1034940Y4493562D01*
X-1032024Y4493100D01*
X-167976Y4493100D01*
X-165060Y4493562D01*
X-165058Y4493562D01*
X-128692Y4499322D01*
X-72694Y4508191D01*
X-34138Y4527836D01*
X16915Y4534106D01*
X34134Y4527838D01*
X72694Y4508191D01*
X84964Y4506248D01*
X86862Y4505947D01*
X131852Y4481009D01*
X141276Y4464967D01*
X142070Y4465389D01*
X144583Y4460662D01*
X146404Y4455619D01*
X154090Y4445097D01*
X161817Y4431874D01*
X167208Y4420018D01*
X170704Y4415961D01*
X170705Y4415959D01*
X199443Y4382607D01*
X203189Y4377890D01*
X212425Y4365248D01*
X224730Y4352943D01*
X228525Y4348856D01*
X259663Y4312718D01*
X277888Y4264615D01*
X260928Y4216051D01*
X240049Y4199972D01*
X240609Y4199096D01*
X236098Y4196211D01*
X231218Y4193992D01*
X227156Y4190492D01*
X193808Y4161758D01*
X189089Y4158011D01*
X176447Y4148775D01*
X164136Y4136464D01*
X160049Y4132669D01*
X124933Y4102412D01*
X124931Y4102409D01*
X120873Y4098913D01*
X117958Y4094416D01*
X114664Y4089334D01*
X104735Y4077063D01*
X-313319Y3659008D01*
X-326364Y3648585D01*
X-332958Y3644424D01*
X-369635Y3602896D01*
X-372809Y3599519D01*
X-383498Y3588830D01*
X-383504Y3588823D01*
X-385382Y3586945D01*
X-386977Y3584817D01*
X-386983Y3584810D01*
X-392878Y3576944D01*
X-396687Y3572266D01*
X-425830Y3539267D01*
X-425832Y3539265D01*
X-429378Y3535249D01*
X-434909Y3523467D01*
X-442805Y3510326D01*
X-450616Y3499905D01*
X-452178Y3495738D01*
X-490540Y3462037D01*
X-517856Y3456900D01*
X-532024Y3456900D01*
X-534940Y3456438D01*
X-534942Y3456438D01*
X-621460Y3442735D01*
X-621461Y3442735D01*
X-627306Y3441809D01*
X-640860Y3434903D01*
X-691915Y3428633D01*
X-709137Y3434901D01*
X-722694Y3441809D01*
X-728539Y3442735D01*
X-728540Y3442735D01*
X-815058Y3456438D01*
X-815060Y3456438D01*
X-817976Y3456900D01*
X-1882024Y3456900D01*
X-1884940Y3456438D01*
X-1884942Y3456438D01*
X-1942441Y3447331D01*
X-1977306Y3441809D01*
X-1982580Y3439121D01*
X-1982582Y3439121D01*
X-1991410Y3434623D01*
X-2042467Y3428353D01*
X-2059692Y3434623D01*
X-2067574Y3438639D01*
X-2078697Y3442253D01*
X-2165097Y3455938D01*
X-2170969Y3456400D01*
X-2483541Y3456400D01*
X-2493698Y3452703D01*
X-2496800Y3447331D01*
X-2496800Y1672000D01*
X-2514393Y1623662D01*
X-2558942Y1597942D01*
X-2572000Y1596800D01*
X-3593140Y1596800D01*
X-3603297Y1593103D01*
X-3606399Y1587731D01*
X-3606399Y520971D01*
X-3605936Y515093D01*
X-3602574Y493862D01*
X-3612390Y443368D01*
X-3652367Y410997D01*
X-3676848Y406900D01*
X-4962059Y406900D01*
X-4973823Y407826D01*
X-4994153Y411046D01*
X-5000000Y411972D01*
X-5005846Y411046D01*
X-5005850Y411046D01*
X-5008654Y410602D01*
X-5028835Y410149D01*
X-5094567Y417555D01*
X-5123559Y420821D01*
X-5139973Y424567D01*
X-5249338Y462836D01*
X-5264510Y470142D01*
X-5302263Y493864D01*
X-5362622Y531790D01*
X-5375786Y542289D01*
X-5457711Y624214D01*
X-5468211Y637379D01*
X-5529858Y735490D01*
X-5537164Y750662D01*
X-5575432Y860025D01*
X-5579179Y876443D01*
X-5589851Y971165D01*
X-5589398Y991346D01*
X-5588954Y994150D01*
X-5588954Y994154D01*
X-5588028Y1000000D01*
X-5592174Y1026178D01*
X-5593100Y1037941D01*
X-5593100Y2016459D01*
X-3606400Y2016459D01*
X-3602703Y2006302D01*
X-3597331Y2003200D01*
X-2916459Y2003200D01*
X-2906302Y2006897D01*
X-2903200Y2012269D01*
X-2903200Y3443140D01*
X-2906897Y3453297D01*
X-2912269Y3456399D01*
X-3229029Y3456399D01*
X-3234904Y3455936D01*
X-3321304Y3442253D01*
X-3332422Y3438641D01*
X-3436577Y3385572D01*
X-3446044Y3378693D01*
X-3528693Y3296044D01*
X-3535572Y3286577D01*
X-3588640Y3182424D01*
X-3592253Y3171303D01*
X-3605938Y3084903D01*
X-3606400Y3079031D01*
X-3606400Y2016459D01*
X-5593100Y2016459D01*
X-5593100Y6758258D01*
X-5575507Y6806596D01*
X-5530958Y6832316D01*
X-5480300Y6823383D01*
G37*
G04 #@! TD.AperFunction*
G04 #@! TA.AperFunction,Conductor*
G36*
X5551864Y3019460D02*
G01*
X5587044Y2981932D01*
X5593100Y2952367D01*
X5593100Y1037941D01*
X5592174Y1026178D01*
X5588028Y1000000D01*
X5588954Y994154D01*
X5588954Y994150D01*
X5589398Y991346D01*
X5589851Y971165D01*
X5579179Y876444D01*
X5575433Y860028D01*
X5547161Y779232D01*
X5537164Y750663D01*
X5529858Y735491D01*
X5468210Y637379D01*
X5457710Y624214D01*
X5375786Y542290D01*
X5362622Y531791D01*
X5345337Y520930D01*
X5264509Y470142D01*
X5249337Y462836D01*
X5139972Y424567D01*
X5123558Y420821D01*
X5095014Y417605D01*
X5028835Y410149D01*
X5008654Y410602D01*
X5005850Y411046D01*
X5005846Y411046D01*
X5000000Y411972D01*
X4994153Y411046D01*
X4973823Y407826D01*
X4962059Y406900D01*
X3677355Y406900D01*
X3629017Y424493D01*
X3603297Y469042D01*
X3603081Y493864D01*
X3606438Y515058D01*
X3606438Y515060D01*
X3606900Y517976D01*
X3606900Y2493390D01*
X3624493Y2541728D01*
X3669042Y2567448D01*
X3719700Y2558515D01*
X3731880Y2549755D01*
X3764697Y2520772D01*
X3768091Y2517581D01*
X3780655Y2505017D01*
X3790673Y2497509D01*
X3795337Y2493712D01*
X3832351Y2461022D01*
X3837200Y2458745D01*
X3837202Y2458744D01*
X3844135Y2455489D01*
X3857275Y2447594D01*
X3861421Y2444487D01*
X3867696Y2439784D01*
X3913942Y2422448D01*
X3919501Y2420105D01*
X3959348Y2401396D01*
X3959355Y2401394D01*
X3964200Y2399119D01*
X3969487Y2398296D01*
X3969490Y2398295D01*
X3977065Y2397116D01*
X3991894Y2393225D01*
X3999063Y2390537D01*
X3999065Y2390536D01*
X4004084Y2388655D01*
X4053334Y2384996D01*
X4059327Y2384307D01*
X4063407Y2383672D01*
X4071907Y2382348D01*
X4071911Y2382348D01*
X4074786Y2381900D01*
X4092200Y2381900D01*
X4097773Y2381693D01*
X4143996Y2378258D01*
X4143997Y2378258D01*
X4149341Y2377861D01*
X4160501Y2380243D01*
X4176198Y2381900D01*
X4587108Y2381900D01*
X4603702Y2380046D01*
X4611305Y2378326D01*
X4666593Y2381756D01*
X4671249Y2381900D01*
X4689018Y2381900D01*
X4701396Y2383672D01*
X4707392Y2384287D01*
X4756682Y2387345D01*
X4761713Y2389161D01*
X4761721Y2389163D01*
X4768928Y2391765D01*
X4783800Y2395473D01*
X4791387Y2396560D01*
X4791389Y2396561D01*
X4796692Y2397320D01*
X4801564Y2399535D01*
X4801570Y2399537D01*
X4841653Y2417762D01*
X4847243Y2420038D01*
X4853924Y2422450D01*
X4893686Y2436804D01*
X4904208Y2444490D01*
X4917431Y2452217D01*
X4929287Y2457608D01*
X4966702Y2489846D01*
X4971415Y2493589D01*
X4984057Y2502825D01*
X4996362Y2515130D01*
X5000449Y2518925D01*
X5035576Y2549192D01*
X5035577Y2549193D01*
X5039632Y2552687D01*
X5045840Y2562264D01*
X5055770Y2574538D01*
X5322922Y2841689D01*
X5335968Y2852113D01*
X5338030Y2853414D01*
X5342558Y2856271D01*
X5379229Y2897793D01*
X5382419Y2901186D01*
X5394983Y2913750D01*
X5402491Y2923768D01*
X5406289Y2928433D01*
X5435432Y2961431D01*
X5438978Y2965446D01*
X5444511Y2977230D01*
X5452406Y2990369D01*
X5457724Y2997465D01*
X5500791Y3025595D01*
X5551864Y3019460D01*
G37*
G04 #@! TD.AperFunction*
G04 #@! TA.AperFunction,Conductor*
G36*
X-5421365Y6745922D02*
G01*
X-5342151Y6666708D01*
X-5335099Y6663115D01*
X-5335098Y6663114D01*
X-5281097Y6635599D01*
X-5227306Y6608191D01*
X-5132024Y6593100D01*
X-3907500Y6593100D01*
X-3848369Y6573887D01*
X-3811824Y6523587D01*
X-3806900Y6492500D01*
X-3806900Y4867976D01*
X-3791809Y4772694D01*
X-3733292Y4657849D01*
X-3642151Y4566708D01*
X-3635099Y4563115D01*
X-3635098Y4563114D01*
X-3581097Y4535599D01*
X-3527306Y4508191D01*
X-3432024Y4493100D01*
X-2567976Y4493100D01*
X-2472694Y4508191D01*
X-2445673Y4521959D01*
X-2384264Y4531687D01*
X-2354326Y4521959D01*
X-2327306Y4508191D01*
X-2232024Y4493100D01*
X-1367976Y4493100D01*
X-1272694Y4508191D01*
X-1245673Y4521959D01*
X-1184264Y4531687D01*
X-1154326Y4521959D01*
X-1127306Y4508191D01*
X-1032024Y4493100D01*
X-167976Y4493100D01*
X-72694Y4508191D01*
X-45673Y4521959D01*
X15736Y4531687D01*
X45673Y4521959D01*
X65636Y4511787D01*
X65638Y4511786D01*
X72694Y4508191D01*
X80514Y4506952D01*
X88046Y4504505D01*
X87057Y4501460D01*
X129763Y4479708D01*
X145274Y4458749D01*
X146404Y4455619D01*
X150631Y4449833D01*
X150633Y4449829D01*
X152552Y4447202D01*
X162896Y4429501D01*
X164241Y4426542D01*
X164243Y4426539D01*
X167208Y4420018D01*
X171885Y4414590D01*
X198785Y4383370D01*
X203800Y4377054D01*
X212425Y4365248D01*
X224071Y4353602D01*
X229135Y4348148D01*
X240589Y4334855D01*
X264631Y4277520D01*
X250380Y4217001D01*
X230048Y4192984D01*
X194570Y4162414D01*
X188269Y4157411D01*
X176447Y4148775D01*
X164795Y4137123D01*
X159340Y4132058D01*
X120873Y4098913D01*
X116973Y4092896D01*
X116972Y4092895D01*
X116125Y4091588D01*
X102843Y4075171D01*
X-311312Y3661015D01*
X-321453Y3652912D01*
X-321438Y3652894D01*
X-326896Y3648249D01*
X-332958Y3644424D01*
X-337703Y3639051D01*
X-369116Y3603484D01*
X-373367Y3598961D01*
X-385382Y3586945D01*
X-392274Y3577749D01*
X-397356Y3571508D01*
X-429378Y3535249D01*
X-432425Y3528758D01*
X-433805Y3525820D01*
X-444364Y3508246D01*
X-450616Y3499905D01*
X-452614Y3501403D01*
X-489639Y3466505D01*
X-524748Y3457161D01*
X-528066Y3456900D01*
X-532024Y3456900D01*
X-535930Y3456281D01*
X-535935Y3456281D01*
X-582599Y3448890D01*
X-627306Y3441809D01*
X-634364Y3438213D01*
X-641892Y3435767D01*
X-642825Y3438639D01*
X-690747Y3431054D01*
X-707835Y3436606D01*
X-708108Y3435767D01*
X-715636Y3438213D01*
X-722694Y3441809D01*
X-817976Y3456900D01*
X-1882024Y3456900D01*
X-1911623Y3452212D01*
X-1969485Y3443048D01*
X-1969487Y3443047D01*
X-1977306Y3441809D01*
X-1984360Y3438215D01*
X-1991890Y3435768D01*
X-1992764Y3438459D01*
X-2041274Y3430768D01*
X-2057972Y3436195D01*
X-2058267Y3435286D01*
X-2080672Y3442566D01*
X-2164104Y3455781D01*
X-2171972Y3456400D01*
X-2480867Y3456400D01*
X-2493757Y3452212D01*
X-2496800Y3448023D01*
X-2496800Y1697400D01*
X-2516013Y1638269D01*
X-2566313Y1601724D01*
X-2597400Y1596800D01*
X-3590466Y1596800D01*
X-3603356Y1592612D01*
X-3606399Y1588423D01*
X-3606399Y521961D01*
X-3605882Y515387D01*
X-3620400Y454932D01*
X-3667680Y414555D01*
X-3706172Y406900D01*
X-4960062Y406900D01*
X-4975799Y408139D01*
X-4992177Y410733D01*
X-5000000Y411972D01*
X-5007822Y410733D01*
X-5015739Y410733D01*
X-5015739Y410905D01*
X-5032256Y410534D01*
X-5035548Y410905D01*
X-5045018Y411972D01*
X-5120712Y420501D01*
X-5142674Y425513D01*
X-5226750Y454932D01*
X-5246640Y461892D01*
X-5266935Y471666D01*
X-5360196Y530266D01*
X-5377808Y544311D01*
X-5455689Y622192D01*
X-5469734Y639804D01*
X-5528334Y733065D01*
X-5538108Y753360D01*
X-5574487Y857326D01*
X-5579499Y879288D01*
X-5589466Y967744D01*
X-5589095Y984261D01*
X-5589267Y984261D01*
X-5589267Y992178D01*
X-5588028Y1000000D01*
X-5591861Y1024201D01*
X-5593100Y1039938D01*
X-5593100Y2019133D01*
X-3606400Y2019133D01*
X-3602212Y2006243D01*
X-3598023Y2003200D01*
X-2919133Y2003200D01*
X-2906243Y2007388D01*
X-2903200Y2011577D01*
X-2903200Y3440466D01*
X-2907388Y3453356D01*
X-2911577Y3456399D01*
X-3228034Y3456399D01*
X-3235883Y3455782D01*
X-3319328Y3442566D01*
X-3334208Y3437731D01*
X-3434798Y3386478D01*
X-3447453Y3377284D01*
X-3527284Y3297453D01*
X-3536478Y3284798D01*
X-3587732Y3184207D01*
X-3592566Y3169328D01*
X-3605781Y3085896D01*
X-3606400Y3078028D01*
X-3606400Y2019133D01*
X-5593100Y2019133D01*
X-5593100Y6674787D01*
X-5573887Y6733918D01*
X-5523587Y6770463D01*
X-5461413Y6770463D01*
X-5421365Y6745922D01*
G37*
G04 #@! TD.AperFunction*
G04 #@! TA.AperFunction,Conductor*
G36*
X5532532Y2966369D02*
G01*
X5579135Y2925212D01*
X5593100Y2874077D01*
X5593100Y1039938D01*
X5591861Y1024201D01*
X5588028Y1000000D01*
X5589267Y992178D01*
X5589267Y984261D01*
X5589095Y984261D01*
X5589466Y967744D01*
X5579499Y879289D01*
X5574487Y857327D01*
X5538108Y753361D01*
X5528333Y733064D01*
X5469735Y639806D01*
X5455690Y622194D01*
X5377806Y544310D01*
X5360194Y530265D01*
X5266936Y471667D01*
X5246639Y461892D01*
X5142673Y425513D01*
X5120711Y420501D01*
X5045018Y411972D01*
X5035549Y410905D01*
X5032256Y410534D01*
X5015739Y410905D01*
X5015739Y410733D01*
X5007822Y410733D01*
X5000000Y411972D01*
X4992177Y410733D01*
X4975799Y408139D01*
X4960062Y406900D01*
X3706675Y406900D01*
X3647544Y426113D01*
X3610999Y476413D01*
X3606431Y515016D01*
X3606900Y517976D01*
X3606900Y2435902D01*
X3626113Y2495033D01*
X3676413Y2531578D01*
X3738587Y2531578D01*
X3774919Y2509314D01*
X3775420Y2509892D01*
X3778128Y2507544D01*
X3780655Y2505017D01*
X3783510Y2502878D01*
X3783515Y2502873D01*
X3789846Y2498129D01*
X3796109Y2493030D01*
X3832351Y2461022D01*
X3838837Y2457977D01*
X3841785Y2456592D01*
X3859354Y2446035D01*
X3861958Y2444084D01*
X3867696Y2439784D01*
X3912995Y2422803D01*
X3920430Y2419670D01*
X3964200Y2399119D01*
X3974493Y2397516D01*
X3994319Y2392315D01*
X3997367Y2391173D01*
X4004084Y2388655D01*
X4043908Y2385696D01*
X4052305Y2385072D01*
X4060330Y2384151D01*
X4070945Y2382498D01*
X4070947Y2382498D01*
X4074786Y2381900D01*
X4091260Y2381900D01*
X4098714Y2381623D01*
X4149341Y2377861D01*
X4156349Y2379357D01*
X4156351Y2379357D01*
X4157880Y2379683D01*
X4178882Y2381900D01*
X4584273Y2381900D01*
X4597171Y2380459D01*
X4597173Y2380483D01*
X4604311Y2379909D01*
X4611305Y2378326D01*
X4665803Y2381707D01*
X4672032Y2381900D01*
X4689018Y2381900D01*
X4692565Y2382408D01*
X4692567Y2382408D01*
X4695210Y2382787D01*
X4700386Y2383528D01*
X4708404Y2384349D01*
X4724738Y2385363D01*
X4749531Y2386901D01*
X4749533Y2386901D01*
X4756682Y2387345D01*
X4763420Y2389778D01*
X4763422Y2389778D01*
X4766479Y2390882D01*
X4786377Y2395843D01*
X4796692Y2397320D01*
X4840723Y2417340D01*
X4848194Y2420381D01*
X4893686Y2436804D01*
X4899474Y2441032D01*
X4902103Y2442952D01*
X4919804Y2453296D01*
X4922763Y2454641D01*
X4922766Y2454643D01*
X4929287Y2457608D01*
X4965935Y2489185D01*
X4972254Y2494202D01*
X4984057Y2502825D01*
X4995703Y2514471D01*
X5001171Y2519547D01*
X5034203Y2548009D01*
X5039632Y2552687D01*
X5044383Y2560016D01*
X5057664Y2576432D01*
X5320916Y2839683D01*
X5331054Y2847784D01*
X5331039Y2847802D01*
X5336495Y2852445D01*
X5342558Y2856271D01*
X5378700Y2897194D01*
X5382967Y2901734D01*
X5394983Y2913750D01*
X5397122Y2916605D01*
X5397127Y2916610D01*
X5401871Y2922941D01*
X5406969Y2929203D01*
X5417096Y2940670D01*
X5470639Y2972273D01*
X5532532Y2966369D01*
G37*
G04 #@! TD.AperFunction*
M02*
