G04 #@! TF.GenerationSoftware,KiCad,Pcbnew,(6.0.7-1)-1*
G04 #@! TF.CreationDate,2022-11-13T18:35:53+09:00*
G04 #@! TF.ProjectId,BM71-Dongle,424d3731-2d44-46f6-9e67-6c652e6b6963,V1.0*
G04 #@! TF.SameCoordinates,Original*
G04 #@! TF.FileFunction,Legend,Bot*
G04 #@! TF.FilePolarity,Positive*
%FSLAX46Y46*%
G04 Gerber Fmt 4.6, Leading zero omitted, Abs format (unit mm)*
G04 Created by KiCad (PCBNEW (6.0.7-1)-1) date 2022-11-13 18:35:53*
%MOMM*%
%LPD*%
G01*
G04 APERTURE LIST*
%ADD10C,0.120000*%
G04 APERTURE END LIST*
D10*
X5295238Y4007142D02*
X5180952Y3969047D01*
X5142857Y3930952D01*
X5104761Y3854761D01*
X5104761Y3740476D01*
X5142857Y3664285D01*
X5180952Y3626190D01*
X5257142Y3588095D01*
X5561904Y3588095D01*
X5561904Y4388095D01*
X5295238Y4388095D01*
X5219047Y4350000D01*
X5180952Y4311904D01*
X5142857Y4235714D01*
X5142857Y4159523D01*
X5180952Y4083333D01*
X5219047Y4045238D01*
X5295238Y4007142D01*
X5561904Y4007142D01*
X4761904Y3588095D02*
X4761904Y4388095D01*
X4495238Y3816666D01*
X4228571Y4388095D01*
X4228571Y3588095D01*
X3923809Y4388095D02*
X3390476Y4388095D01*
X3733333Y3588095D01*
X2666666Y3588095D02*
X3123809Y3588095D01*
X2895238Y3588095D02*
X2895238Y4388095D01*
X2971428Y4273809D01*
X3047619Y4197619D01*
X3123809Y4159523D01*
X2323809Y3892857D02*
X1714285Y3892857D01*
X1333333Y3588095D02*
X1333333Y4388095D01*
X1142857Y4388095D01*
X1028571Y4350000D01*
X952380Y4273809D01*
X914285Y4197619D01*
X876190Y4045238D01*
X876190Y3930952D01*
X914285Y3778571D01*
X952380Y3702380D01*
X1028571Y3626190D01*
X1142857Y3588095D01*
X1333333Y3588095D01*
X419047Y3588095D02*
X495238Y3626190D01*
X533333Y3664285D01*
X571428Y3740476D01*
X571428Y3969047D01*
X533333Y4045238D01*
X495238Y4083333D01*
X419047Y4121428D01*
X304761Y4121428D01*
X228571Y4083333D01*
X190476Y4045238D01*
X152380Y3969047D01*
X152380Y3740476D01*
X190476Y3664285D01*
X228571Y3626190D01*
X304761Y3588095D01*
X419047Y3588095D01*
X-190476Y4121428D02*
X-190476Y3588095D01*
X-190476Y4045238D02*
X-228571Y4083333D01*
X-304761Y4121428D01*
X-419047Y4121428D01*
X-495238Y4083333D01*
X-533333Y4007142D01*
X-533333Y3588095D01*
X-1257142Y4121428D02*
X-1257142Y3473809D01*
X-1219047Y3397619D01*
X-1180952Y3359523D01*
X-1104761Y3321428D01*
X-990476Y3321428D01*
X-914285Y3359523D01*
X-1257142Y3626190D02*
X-1180952Y3588095D01*
X-1028571Y3588095D01*
X-952380Y3626190D01*
X-914285Y3664285D01*
X-876190Y3740476D01*
X-876190Y3969047D01*
X-914285Y4045238D01*
X-952380Y4083333D01*
X-1028571Y4121428D01*
X-1180952Y4121428D01*
X-1257142Y4083333D01*
X-1752380Y3588095D02*
X-1676190Y3626190D01*
X-1638095Y3702380D01*
X-1638095Y4388095D01*
X-2361904Y3626190D02*
X-2285714Y3588095D01*
X-2133333Y3588095D01*
X-2057142Y3626190D01*
X-2019047Y3702380D01*
X-2019047Y4007142D01*
X-2057142Y4083333D01*
X-2133333Y4121428D01*
X-2285714Y4121428D01*
X-2361904Y4083333D01*
X-2399999Y4007142D01*
X-2399999Y3930952D01*
X-2019047Y3854761D01*
X-3238095Y4388095D02*
X-3504761Y3588095D01*
X-3771428Y4388095D01*
X-4457142Y3588095D02*
X-3999999Y3588095D01*
X-4228571Y3588095D02*
X-4228571Y4388095D01*
X-4152380Y4273809D01*
X-4076190Y4197619D01*
X-3999999Y4159523D01*
X-4799999Y3664285D02*
X-4838095Y3626190D01*
X-4799999Y3588095D01*
X-4761904Y3626190D01*
X-4799999Y3664285D01*
X-4799999Y3588095D01*
X-5333333Y4388095D02*
X-5409523Y4388095D01*
X-5485714Y4350000D01*
X-5523809Y4311904D01*
X-5561904Y4235714D01*
X-5599999Y4083333D01*
X-5599999Y3892857D01*
X-5561904Y3740476D01*
X-5523809Y3664285D01*
X-5485714Y3626190D01*
X-5409523Y3588095D01*
X-5333333Y3588095D01*
X-5257142Y3626190D01*
X-5219047Y3664285D01*
X-5180952Y3740476D01*
X-5142857Y3892857D01*
X-5142857Y4083333D01*
X-5180952Y4235714D01*
X-5219047Y4311904D01*
X-5257142Y4350000D01*
X-5333333Y4388095D01*
X3500000Y2500000D02*
X3500000Y300000D01*
X-3500000Y2500000D02*
X-3500000Y300000D01*
X4600000Y5400000D02*
X3700000Y5400000D01*
X4600000Y6700000D02*
X4600000Y5400000D01*
X-4600000Y5400000D02*
X-3700000Y5400000D01*
X-4600000Y6700000D02*
X-4600000Y5400000D01*
M02*
