G04 #@! TF.GenerationSoftware,KiCad,Pcbnew,(6.0.9)*
G04 #@! TF.CreationDate,2023-01-08T15:38:34+09:00*
G04 #@! TF.ProjectId,BM71-Dongle,424d3731-2d44-46f6-9e67-6c652e6b6963,V2.0*
G04 #@! TF.SameCoordinates,Original*
G04 #@! TF.FileFunction,Copper,L1,Top*
G04 #@! TF.FilePolarity,Positive*
%FSLAX46Y46*%
G04 Gerber Fmt 4.6, Leading zero omitted, Abs format (unit mm)*
G04 Created by KiCad (PCBNEW (6.0.9)) date 2023-01-08 15:38:34*
%MOMM*%
%LPD*%
G01*
G04 APERTURE LIST*
G04 Aperture macros list*
%AMRoundRect*
0 Rectangle with rounded corners*
0 $1 Rounding radius*
0 $2 $3 $4 $5 $6 $7 $8 $9 X,Y pos of 4 corners*
0 Add a 4 corners polygon primitive as box body*
4,1,4,$2,$3,$4,$5,$6,$7,$8,$9,$2,$3,0*
0 Add four circle primitives for the rounded corners*
1,1,$1+$1,$2,$3*
1,1,$1+$1,$4,$5*
1,1,$1+$1,$6,$7*
1,1,$1+$1,$8,$9*
0 Add four rect primitives between the rounded corners*
20,1,$1+$1,$2,$3,$4,$5,0*
20,1,$1+$1,$4,$5,$6,$7,0*
20,1,$1+$1,$6,$7,$8,$9,0*
20,1,$1+$1,$8,$9,$2,$3,0*%
G04 Aperture macros list end*
G04 #@! TA.AperFunction,SMDPad,CuDef*
%ADD10R,0.900000X1.200000*%
G04 #@! TD*
G04 #@! TA.AperFunction,SMDPad,CuDef*
%ADD11R,0.500000X1.200000*%
G04 #@! TD*
G04 #@! TA.AperFunction,SMDPad,CuDef*
%ADD12RoundRect,0.150000X0.150000X-0.150000X0.150000X0.150000X-0.150000X0.150000X-0.150000X-0.150000X0*%
G04 #@! TD*
G04 #@! TA.AperFunction,ComponentPad*
%ADD13R,1.000000X2.500000*%
G04 #@! TD*
G04 #@! TA.AperFunction,SMDPad,CuDef*
%ADD14RoundRect,0.200000X-0.250000X-0.200000X0.250000X-0.200000X0.250000X0.200000X-0.250000X0.200000X0*%
G04 #@! TD*
G04 #@! TA.AperFunction,SMDPad,CuDef*
%ADD15RoundRect,0.150000X-0.150000X0.150000X-0.150000X-0.150000X0.150000X-0.150000X0.150000X0.150000X0*%
G04 #@! TD*
G04 #@! TA.AperFunction,ViaPad*
%ADD16C,0.609600*%
G04 #@! TD*
G04 #@! TA.AperFunction,Conductor*
%ADD17C,0.203200*%
G04 #@! TD*
G04 APERTURE END LIST*
D10*
X-3575000Y7000000D03*
X-3575000Y11000000D03*
X-5075000Y11000000D03*
X-5075000Y7000000D03*
D11*
X-950000Y4300000D03*
X0Y4300000D03*
X950000Y4300000D03*
X950000Y6600000D03*
X-950000Y6600000D03*
D12*
X2000000Y5000000D03*
X2000000Y6000000D03*
X1000000Y8600000D03*
X1000000Y9600000D03*
X-1000000Y8600000D03*
X-1000000Y9600000D03*
D13*
X2700000Y1800000D03*
X1350000Y1800000D03*
X0Y1800000D03*
X-1350000Y1800000D03*
X-2700000Y1800000D03*
D14*
X-850000Y11800000D03*
X850000Y11800000D03*
D15*
X-2000000Y5950000D03*
X-2000000Y4950000D03*
X0Y9600000D03*
X0Y8600000D03*
D10*
X3575000Y11000000D03*
X3575000Y7000000D03*
X5075000Y11000000D03*
X5075000Y7000000D03*
D16*
X-4500000Y1500000D03*
X4500000Y1500000D03*
X-1995700Y3963900D03*
X-2500000Y8600000D03*
X-2500000Y7750000D03*
X4400000Y4950000D03*
X4400000Y3500000D03*
X2250000Y9600000D03*
X-2500000Y11000000D03*
D17*
X950000Y3400000D02*
X945200Y3395200D01*
X950000Y4300000D02*
X950000Y3400000D01*
X2000000Y5000000D02*
X2000000Y4400000D01*
X945200Y3395200D02*
X795200Y3395200D01*
X2000000Y4400000D02*
X1900000Y4300000D01*
X795200Y3395200D02*
X-895200Y3395200D01*
X2700000Y3253200D02*
X2558000Y3395200D01*
X-895200Y3395200D02*
X-950000Y3450000D01*
X2558000Y3395200D02*
X795200Y3395200D01*
X-950000Y3450000D02*
X-950000Y4300000D01*
X1900000Y4300000D02*
X950000Y4300000D01*
X2700000Y1800000D02*
X2700000Y3253200D01*
X-2000000Y3968200D02*
X-1995700Y3963900D01*
X-2000000Y4950000D02*
X-1500000Y5450000D01*
X-2000000Y4950000D02*
X-2000000Y3968200D01*
X-1500000Y5450000D02*
X1450000Y5450000D01*
X1450000Y5450000D02*
X2000000Y6000000D01*
X-1350000Y3200000D02*
X-1350000Y1800000D01*
X-2604800Y3654800D02*
X-2304800Y3354800D01*
X-2000000Y5950000D02*
X-2000000Y6500000D01*
X-1504800Y3354800D02*
X-1350000Y3200000D01*
X-1900000Y6600000D02*
X-950000Y6600000D01*
X-2500000Y8600000D02*
X-1000000Y8600000D01*
X-2350000Y5950000D02*
X-2604800Y5695200D01*
X-2304800Y3354800D02*
X-1504800Y3354800D01*
X-2000000Y5950000D02*
X-2350000Y5950000D01*
X-2000000Y6500000D02*
X-1900000Y6600000D01*
X-1000000Y8600000D02*
X-1000000Y6650000D01*
X-2604800Y5695200D02*
X-2604800Y3654800D01*
X-1000000Y8600000D02*
X1000000Y8600000D01*
X-1000000Y6650000D02*
X-950000Y6600000D01*
X-3109600Y9190400D02*
X-850000Y11450000D01*
X-2512105Y7750000D02*
X-3109600Y8347495D01*
X-3109600Y8347495D02*
X-3109600Y9190400D01*
X-2500000Y7750000D02*
X-2512105Y7750000D01*
X-850000Y11450000D02*
X-850000Y11800000D01*
X0Y9600000D02*
X0Y10025264D01*
X850000Y10875264D02*
X850000Y11800000D01*
X0Y10025264D02*
X850000Y10875264D01*
X4400000Y4950000D02*
X4400000Y3500000D01*
X2250000Y9600000D02*
X3550000Y9600000D01*
X3575000Y9625000D02*
X3575000Y7000000D01*
X3550000Y9600000D02*
X3575000Y9625000D01*
X1000000Y9600000D02*
X2250000Y9600000D01*
X3575000Y11000000D02*
X3575000Y9625000D01*
X-3575000Y11000000D02*
X-2500000Y11000000D01*
X-3575000Y11000000D02*
X-3575000Y7000000D01*
X-2500000Y11450000D02*
X-2500000Y11000000D01*
X-1000000Y9600000D02*
X-95200Y10504800D01*
X-1445200Y12504800D02*
X-2500000Y11450000D01*
X-95200Y12209095D02*
X-390905Y12504800D01*
X-390905Y12504800D02*
X-1445200Y12504800D01*
X-95200Y10504800D02*
X-95200Y12209095D01*
G04 #@! TA.AperFunction,Conductor*
G36*
X-4871800Y10006860D02*
G01*
X-4868103Y9996703D01*
X-4862731Y9993601D01*
X-4595971Y9993601D01*
X-4590096Y9994064D01*
X-4503696Y10007747D01*
X-4492578Y10011359D01*
X-4388423Y10064428D01*
X-4378956Y10071307D01*
X-4378527Y10071736D01*
X-4378076Y10071946D01*
X-4374176Y10074780D01*
X-4373625Y10074022D01*
X-4331907Y10093476D01*
X-4282220Y10080162D01*
X-4272179Y10071736D01*
X-4267151Y10066708D01*
X-4152306Y10008191D01*
X-4146459Y10007265D01*
X-4140833Y10005437D01*
X-4141240Y10004184D01*
X-4101942Y9982397D01*
X-4083500Y9933066D01*
X-4083500Y8066934D01*
X-4101093Y8018596D01*
X-4141258Y7995870D01*
X-4140833Y7994563D01*
X-4146459Y7992735D01*
X-4152306Y7991809D01*
X-4267151Y7933292D01*
X-4272179Y7928264D01*
X-4273060Y7927853D01*
X-4276121Y7925629D01*
X-4276553Y7926224D01*
X-4318799Y7906524D01*
X-4368486Y7919838D01*
X-4378527Y7928264D01*
X-4378956Y7928693D01*
X-4388423Y7935572D01*
X-4492576Y7988640D01*
X-4503697Y7992253D01*
X-4590097Y8005938D01*
X-4595969Y8006400D01*
X-4858541Y8006400D01*
X-4868698Y8002703D01*
X-4871800Y7997331D01*
X-4871800Y6006860D01*
X-4868103Y5996703D01*
X-4862731Y5993601D01*
X-4595971Y5993601D01*
X-4590096Y5994064D01*
X-4503696Y6007747D01*
X-4492578Y6011359D01*
X-4388423Y6064428D01*
X-4378956Y6071307D01*
X-4378527Y6071736D01*
X-4378076Y6071946D01*
X-4374176Y6074780D01*
X-4373625Y6074022D01*
X-4331907Y6093476D01*
X-4282220Y6080162D01*
X-4272179Y6071736D01*
X-4267151Y6066708D01*
X-4152306Y6008191D01*
X-4146459Y6007265D01*
X-4059942Y5993562D01*
X-4059940Y5993562D01*
X-4057024Y5993100D01*
X-3145118Y5993100D01*
X-3096780Y5975507D01*
X-3071060Y5930958D01*
X-3077047Y5885942D01*
X-3096081Y5845400D01*
X-3096905Y5840107D01*
X-3096907Y5840101D01*
X-3098085Y5832536D01*
X-3101974Y5817711D01*
X-3104664Y5810534D01*
X-3106545Y5805516D01*
X-3106942Y5800175D01*
X-3106942Y5800174D01*
X-3110204Y5756269D01*
X-3110893Y5750273D01*
X-3113300Y5734814D01*
X-3113300Y5717400D01*
X-3113507Y5711827D01*
X-3116548Y5670898D01*
X-3117339Y5660259D01*
X-3116220Y5655019D01*
X-3114957Y5649101D01*
X-3113300Y5633402D01*
X-3113300Y3720197D01*
X-3115154Y3703603D01*
X-3116874Y3696000D01*
X-3115324Y3671011D01*
X-3113444Y3640712D01*
X-3113300Y3636056D01*
X-3113300Y3618287D01*
X-3112921Y3615643D01*
X-3111528Y3605912D01*
X-3110913Y3599910D01*
X-3108895Y3567392D01*
X-3107855Y3550623D01*
X-3106354Y3546465D01*
X-3113725Y3495946D01*
X-3152132Y3461728D01*
X-3179936Y3456399D01*
X-3229029Y3456399D01*
X-3234904Y3455936D01*
X-3321304Y3442253D01*
X-3332422Y3438641D01*
X-3436577Y3385572D01*
X-3446044Y3378693D01*
X-3528693Y3296044D01*
X-3535572Y3286577D01*
X-3588640Y3182424D01*
X-3592253Y3171303D01*
X-3605938Y3084903D01*
X-3606400Y3079031D01*
X-3606400Y2016459D01*
X-3602703Y2006302D01*
X-3597331Y2003200D01*
X-2572000Y2003200D01*
X-2523662Y1985607D01*
X-2497942Y1941058D01*
X-2496800Y1928000D01*
X-2496800Y1672000D01*
X-2514393Y1623662D01*
X-2558942Y1597942D01*
X-2572000Y1596800D01*
X-3593140Y1596800D01*
X-3603297Y1593103D01*
X-3606399Y1587731D01*
X-3606399Y520971D01*
X-3605936Y515093D01*
X-3602574Y493862D01*
X-3612390Y443368D01*
X-3652367Y410997D01*
X-3676848Y406900D01*
X-4962059Y406900D01*
X-4973823Y407826D01*
X-4994153Y411046D01*
X-5000000Y411972D01*
X-5005846Y411046D01*
X-5005850Y411046D01*
X-5008654Y410602D01*
X-5028835Y410149D01*
X-5094567Y417555D01*
X-5123559Y420821D01*
X-5139973Y424567D01*
X-5249338Y462836D01*
X-5264510Y470142D01*
X-5302263Y493864D01*
X-5362622Y531790D01*
X-5375786Y542289D01*
X-5457711Y624214D01*
X-5468211Y637379D01*
X-5529858Y735490D01*
X-5537164Y750662D01*
X-5575432Y860025D01*
X-5579179Y876443D01*
X-5589851Y971165D01*
X-5589398Y991346D01*
X-5588954Y994150D01*
X-5588954Y994154D01*
X-5588028Y1000000D01*
X-5592174Y1026178D01*
X-5593100Y1037941D01*
X-5593100Y5918400D01*
X-5575507Y5966738D01*
X-5530958Y5992458D01*
X-5517900Y5993600D01*
X-5291459Y5993600D01*
X-5281302Y5997297D01*
X-5278200Y6002669D01*
X-5278200Y7993140D01*
X-5281897Y8003297D01*
X-5287269Y8006399D01*
X-5517900Y8006399D01*
X-5566238Y8023992D01*
X-5591958Y8068541D01*
X-5593100Y8081599D01*
X-5593100Y9918400D01*
X-5575507Y9966738D01*
X-5530958Y9992458D01*
X-5517900Y9993600D01*
X-5291459Y9993600D01*
X-5281302Y9997297D01*
X-5278200Y10002669D01*
X-5278200Y11000000D01*
X-4871800Y11000000D01*
X-4871800Y10006860D01*
G37*
G04 #@! TD.AperFunction*
G04 #@! TA.AperFunction,Conductor*
G36*
X5278200Y10006860D02*
G01*
X5281897Y9996703D01*
X5287269Y9993601D01*
X5517900Y9993601D01*
X5566238Y9976008D01*
X5591958Y9931459D01*
X5593100Y9918401D01*
X5593100Y8081600D01*
X5575507Y8033262D01*
X5530958Y8007542D01*
X5517900Y8006400D01*
X5291459Y8006400D01*
X5281302Y8002703D01*
X5278200Y7997331D01*
X5278200Y6006860D01*
X5281897Y5996703D01*
X5287269Y5993601D01*
X5517900Y5993601D01*
X5566238Y5976008D01*
X5591958Y5931459D01*
X5593100Y5918401D01*
X5593100Y1037941D01*
X5592174Y1026178D01*
X5588028Y1000000D01*
X5588954Y994154D01*
X5588954Y994150D01*
X5589398Y991346D01*
X5589851Y971165D01*
X5579179Y876444D01*
X5575433Y860028D01*
X5547161Y779232D01*
X5537164Y750663D01*
X5529858Y735491D01*
X5468210Y637379D01*
X5457710Y624214D01*
X5375786Y542290D01*
X5362622Y531791D01*
X5345337Y520930D01*
X5264509Y470142D01*
X5249337Y462836D01*
X5139972Y424567D01*
X5123558Y420821D01*
X5095014Y417605D01*
X5028835Y410149D01*
X5008654Y410602D01*
X5005850Y411046D01*
X5005846Y411046D01*
X5000000Y411972D01*
X4994153Y411046D01*
X4973823Y407826D01*
X4962059Y406900D01*
X3677355Y406900D01*
X3629017Y424493D01*
X3603297Y469042D01*
X3603081Y493864D01*
X3606438Y515058D01*
X3606438Y515060D01*
X3606900Y517976D01*
X3606900Y3082024D01*
X3591809Y3177306D01*
X3533292Y3292151D01*
X3442151Y3383292D01*
X3415478Y3396883D01*
X3332579Y3439122D01*
X3332580Y3439122D01*
X3327306Y3441809D01*
X3238111Y3455936D01*
X3234942Y3456438D01*
X3234940Y3456438D01*
X3232024Y3456900D01*
X3217849Y3456900D01*
X3169511Y3474493D01*
X3153747Y3493961D01*
X3153595Y3494381D01*
X3145915Y3504894D01*
X3144387Y3507508D01*
X3683112Y3507508D01*
X3683609Y3503006D01*
X3683609Y3503002D01*
X3690263Y3442735D01*
X3702015Y3336289D01*
X3703571Y3332037D01*
X3703572Y3332033D01*
X3718167Y3292151D01*
X3761213Y3174522D01*
X3763737Y3170766D01*
X3763739Y3170762D01*
X3854764Y3035303D01*
X3854767Y3035299D01*
X3857290Y3031545D01*
X3871727Y3018408D01*
X3981341Y2918667D01*
X3981344Y2918665D01*
X3984698Y2915613D01*
X3988684Y2913449D01*
X3988685Y2913448D01*
X4099915Y2853055D01*
X4136082Y2833418D01*
X4140461Y2832269D01*
X4140464Y2832268D01*
X4247814Y2804106D01*
X4302702Y2789706D01*
X4373776Y2788589D01*
X4470407Y2787071D01*
X4470409Y2787071D01*
X4474939Y2787000D01*
X4642850Y2825457D01*
X4796741Y2902856D01*
X4927728Y3014729D01*
X5028248Y3154618D01*
X5034956Y3171303D01*
X5070041Y3258581D01*
X5092498Y3314446D01*
X5116770Y3484986D01*
X5116927Y3500000D01*
X5102932Y3615643D01*
X5096777Y3666509D01*
X5096777Y3666511D01*
X5096232Y3671011D01*
X5088810Y3690653D01*
X5036947Y3827905D01*
X5036946Y3827907D01*
X5035343Y3832149D01*
X4990537Y3897342D01*
X4940343Y3970376D01*
X4940342Y3970378D01*
X4937775Y3974112D01*
X4933673Y3977767D01*
X4933432Y3978214D01*
X4931393Y3980527D01*
X4931931Y3981002D01*
X4909288Y4023057D01*
X4908500Y4033912D01*
X4908500Y4415304D01*
X4927760Y4464706D01*
X4927728Y4464729D01*
X4927819Y4464855D01*
X4927820Y4464856D01*
X4930373Y4468409D01*
X4930375Y4468412D01*
X5025602Y4600935D01*
X5025604Y4600938D01*
X5028248Y4604618D01*
X5036250Y4624522D01*
X5090807Y4760240D01*
X5092498Y4764446D01*
X5116770Y4934986D01*
X5116927Y4950000D01*
X5096232Y5121011D01*
X5088244Y5142151D01*
X5036947Y5277905D01*
X5036946Y5277907D01*
X5035343Y5282149D01*
X5028230Y5292498D01*
X4940343Y5420376D01*
X4940342Y5420378D01*
X4937775Y5424112D01*
X4903166Y5454948D01*
X4812546Y5535687D01*
X4809160Y5538704D01*
X4656924Y5619309D01*
X4538318Y5649101D01*
X4494256Y5660169D01*
X4494252Y5660169D01*
X4489855Y5661274D01*
X4485321Y5661298D01*
X4485319Y5661298D01*
X4401967Y5661734D01*
X4317598Y5662176D01*
X4150099Y5621963D01*
X3997027Y5542956D01*
X3867219Y5429718D01*
X3809645Y5347798D01*
X3780551Y5306400D01*
X3768170Y5288784D01*
X3705597Y5128292D01*
X3705006Y5123801D01*
X3705005Y5123798D01*
X3700695Y5091058D01*
X3683112Y4957508D01*
X3683609Y4953006D01*
X3683609Y4953002D01*
X3684212Y4947541D01*
X3702015Y4786289D01*
X3703571Y4782037D01*
X3703572Y4782033D01*
X3726014Y4720707D01*
X3761213Y4624522D01*
X3763737Y4620766D01*
X3763739Y4620762D01*
X3854764Y4485304D01*
X3857290Y4481545D01*
X3860638Y4478499D01*
X3860641Y4478495D01*
X3866912Y4472789D01*
X3890822Y4427243D01*
X3891500Y4417170D01*
X3891500Y4034738D01*
X3872186Y3984421D01*
X3870633Y3982697D01*
X3867219Y3979718D01*
X3864613Y3976011D01*
X3864612Y3976009D01*
X3786043Y3864215D01*
X3768170Y3838784D01*
X3705597Y3678292D01*
X3705006Y3673801D01*
X3705005Y3673798D01*
X3700344Y3638391D01*
X3683112Y3507508D01*
X3144387Y3507508D01*
X3138182Y3518127D01*
X3135009Y3525105D01*
X3132792Y3529982D01*
X3100558Y3567392D01*
X3096805Y3572118D01*
X3087575Y3584753D01*
X3075272Y3597056D01*
X3071477Y3601142D01*
X3041207Y3636272D01*
X3037713Y3640327D01*
X3033222Y3643238D01*
X3033221Y3643239D01*
X3028134Y3646536D01*
X3015863Y3656465D01*
X2963808Y3708520D01*
X2953384Y3721565D01*
X2952084Y3723625D01*
X2949224Y3728158D01*
X2907694Y3764836D01*
X2904301Y3768026D01*
X2891745Y3780582D01*
X2889599Y3782190D01*
X2889596Y3782193D01*
X2881744Y3788078D01*
X2877066Y3791887D01*
X2844067Y3821030D01*
X2844065Y3821032D01*
X2840049Y3824578D01*
X2828267Y3830109D01*
X2815125Y3838006D01*
X2808993Y3842603D01*
X2808989Y3842605D01*
X2804705Y3845816D01*
X2758452Y3863156D01*
X2752889Y3865500D01*
X2713050Y3884204D01*
X2708200Y3886481D01*
X2702907Y3887305D01*
X2702901Y3887307D01*
X2695336Y3888485D01*
X2680511Y3892374D01*
X2673334Y3895064D01*
X2673333Y3895064D01*
X2668316Y3896945D01*
X2662975Y3897342D01*
X2662974Y3897342D01*
X2646067Y3898598D01*
X2619066Y3900604D01*
X2613073Y3901293D01*
X2608966Y3901932D01*
X2600493Y3903252D01*
X2600489Y3903252D01*
X2597614Y3903700D01*
X2580200Y3903700D01*
X2574627Y3903907D01*
X2528404Y3907342D01*
X2528403Y3907342D01*
X2523059Y3907739D01*
X2511899Y3905357D01*
X2496202Y3903700D01*
X2406902Y3903700D01*
X2358564Y3921293D01*
X2332844Y3965842D01*
X2341777Y4016500D01*
X2350536Y4028679D01*
X2369635Y4050305D01*
X2372827Y4053700D01*
X2385382Y4066255D01*
X2392878Y4076256D01*
X2396687Y4080934D01*
X2425830Y4113933D01*
X2425832Y4113935D01*
X2429378Y4117951D01*
X2434909Y4129733D01*
X2442806Y4142875D01*
X2447403Y4149007D01*
X2447405Y4149011D01*
X2450616Y4153295D01*
X2467954Y4199545D01*
X2470298Y4205107D01*
X2489005Y4244951D01*
X2489006Y4244954D01*
X2491281Y4249800D01*
X2493285Y4262669D01*
X2497173Y4277491D01*
X2499863Y4284667D01*
X2501744Y4289684D01*
X2505403Y4338922D01*
X2506091Y4344914D01*
X2508053Y4357513D01*
X2508053Y4357518D01*
X2508500Y4360386D01*
X2508500Y4377805D01*
X2508707Y4383381D01*
X2509320Y4391626D01*
X2530449Y4438526D01*
X2538844Y4445947D01*
X2543410Y4449413D01*
X2543411Y4449414D01*
X2547490Y4452510D01*
X2556861Y4464855D01*
X2636641Y4569961D01*
X2639741Y4574045D01*
X2650388Y4600935D01*
X2694132Y4711422D01*
X2695910Y4715912D01*
X2706900Y4806731D01*
X2706899Y5193268D01*
X2695910Y5284088D01*
X2692580Y5292498D01*
X2641629Y5421187D01*
X2641628Y5421188D01*
X2639741Y5425955D01*
X2617734Y5454948D01*
X2602523Y5504087D01*
X2617734Y5545880D01*
X2636201Y5570209D01*
X2641189Y5579061D01*
X2693641Y5711542D01*
X2695999Y5720827D01*
X2703600Y5783635D01*
X2701150Y5794164D01*
X2697639Y5796800D01*
X1872000Y5796800D01*
X1823662Y5814393D01*
X1797942Y5858942D01*
X1796800Y5872000D01*
X1796800Y6691934D01*
X1793103Y6702091D01*
X1789302Y6704286D01*
X1720827Y6695999D01*
X1711543Y6693641D01*
X1709781Y6692944D01*
X1708675Y6692913D01*
X1706859Y6692452D01*
X1706755Y6692860D01*
X1658362Y6691509D01*
X1618049Y6723462D01*
X1606900Y6762864D01*
X1606900Y7232024D01*
X1591809Y7327306D01*
X1533292Y7442151D01*
X1442151Y7533292D01*
X1408501Y7550438D01*
X1372204Y7568932D01*
X1327306Y7591809D01*
X1297196Y7596578D01*
X1234942Y7606438D01*
X1234940Y7606438D01*
X1232024Y7606900D01*
X667976Y7606900D01*
X665060Y7606438D01*
X665058Y7606438D01*
X602804Y7596578D01*
X572694Y7591809D01*
X527796Y7568932D01*
X491500Y7550438D01*
X457849Y7533292D01*
X366708Y7442151D01*
X308191Y7327306D01*
X293100Y7232024D01*
X293100Y5967976D01*
X308191Y5872694D01*
X366708Y5757849D01*
X457849Y5666708D01*
X463125Y5664020D01*
X463126Y5664019D01*
X492404Y5649101D01*
X572694Y5608191D01*
X578541Y5607265D01*
X665058Y5593562D01*
X665060Y5593562D01*
X667976Y5593100D01*
X1232024Y5593100D01*
X1234940Y5593562D01*
X1234942Y5593562D01*
X1271141Y5599295D01*
X1289694Y5602234D01*
X1340189Y5592419D01*
X1361357Y5573426D01*
X1382266Y5545880D01*
X1397477Y5496741D01*
X1382266Y5454948D01*
X1360259Y5425955D01*
X1358371Y5421186D01*
X1330514Y5350829D01*
X1296362Y5312362D01*
X1248831Y5304238D01*
X1234942Y5306438D01*
X1234940Y5306438D01*
X1232024Y5306900D01*
X667976Y5306900D01*
X665060Y5306438D01*
X665058Y5306438D01*
X632031Y5301207D01*
X572694Y5291809D01*
X545406Y5277905D01*
X508590Y5259146D01*
X457534Y5252877D01*
X440310Y5259146D01*
X382424Y5288640D01*
X371303Y5292253D01*
X284903Y5305938D01*
X279031Y5306400D01*
X216459Y5306400D01*
X206302Y5302703D01*
X203200Y5297331D01*
X203200Y4172000D01*
X185607Y4123662D01*
X141058Y4097942D01*
X128000Y4096800D01*
X-128000Y4096800D01*
X-176338Y4114393D01*
X-202058Y4158942D01*
X-203200Y4172000D01*
X-203200Y5293140D01*
X-206897Y5303297D01*
X-212269Y5306399D01*
X-279029Y5306399D01*
X-284904Y5305936D01*
X-371304Y5292253D01*
X-382422Y5288641D01*
X-440310Y5259146D01*
X-491367Y5252878D01*
X-508590Y5259146D01*
X-545406Y5277905D01*
X-572694Y5291809D01*
X-632031Y5301207D01*
X-665058Y5306438D01*
X-665060Y5306438D01*
X-667976Y5306900D01*
X-1232024Y5306900D01*
X-1267967Y5301207D01*
X-1318460Y5311022D01*
X-1349649Y5347798D01*
X-1358811Y5370939D01*
X-1363799Y5379791D01*
X-1382266Y5404120D01*
X-1397477Y5453259D01*
X-1382266Y5495052D01*
X-1363359Y5519961D01*
X-1360259Y5524045D01*
X-1355649Y5535687D01*
X-1349143Y5552121D01*
X-1314991Y5590587D01*
X-1267461Y5598712D01*
X-1234945Y5593562D01*
X-1234937Y5593561D01*
X-1232024Y5593100D01*
X-667976Y5593100D01*
X-665060Y5593562D01*
X-665058Y5593562D01*
X-578541Y5607265D01*
X-572694Y5608191D01*
X-492404Y5649101D01*
X-463126Y5664019D01*
X-463125Y5664020D01*
X-457849Y5666708D01*
X-366708Y5757849D01*
X-308191Y5872694D01*
X-293100Y5967976D01*
X-293100Y7232024D01*
X-308191Y7327306D01*
X-366708Y7442151D01*
X-457849Y7533292D01*
X-461089Y7534943D01*
X-489267Y7576724D01*
X-491500Y7594913D01*
X-491500Y7875557D01*
X-473907Y7923895D01*
X-429358Y7949615D01*
X-388617Y7945476D01*
X-284088Y7904090D01*
X-193269Y7893100D01*
X-190995Y7893100D01*
X682Y7893101D01*
X193268Y7893101D01*
X284088Y7904090D01*
X334110Y7923895D01*
X421187Y7958371D01*
X421188Y7958372D01*
X425955Y7960259D01*
X454534Y7981952D01*
X503673Y7997163D01*
X545466Y7981952D01*
X574045Y7960259D01*
X578812Y7958372D01*
X578813Y7958371D01*
X635364Y7935981D01*
X715912Y7904090D01*
X806731Y7893100D01*
X809005Y7893100D01*
X1000682Y7893101D01*
X1193268Y7893101D01*
X1284088Y7904090D01*
X1334110Y7923895D01*
X1421187Y7958371D01*
X1421188Y7958372D01*
X1425955Y7960259D01*
X1547490Y8052510D01*
X1569988Y8082149D01*
X1636641Y8169961D01*
X1639741Y8174045D01*
X1695910Y8315912D01*
X1706900Y8406731D01*
X1706899Y8793268D01*
X1695910Y8884088D01*
X1655783Y8985437D01*
X1654347Y9036857D01*
X1686298Y9077170D01*
X1736687Y9087513D01*
X1776312Y9068740D01*
X1831341Y9018667D01*
X1831344Y9018665D01*
X1834698Y9015613D01*
X1986082Y8933418D01*
X1990461Y8932269D01*
X1990464Y8932268D01*
X2097814Y8904106D01*
X2152702Y8889706D01*
X2223776Y8888589D01*
X2320407Y8887071D01*
X2320409Y8887071D01*
X2324939Y8887000D01*
X2492850Y8925457D01*
X2646741Y9002856D01*
X2662482Y9016300D01*
X2729435Y9073483D01*
X2778273Y9091500D01*
X2991300Y9091500D01*
X3039638Y9073907D01*
X3065358Y9029358D01*
X3066500Y9016300D01*
X3066500Y8066934D01*
X3048907Y8018596D01*
X3008742Y7995870D01*
X3009167Y7994563D01*
X3003541Y7992735D01*
X2997694Y7991809D01*
X2882849Y7933292D01*
X2791708Y7842151D01*
X2733191Y7727306D01*
X2718100Y7632024D01*
X2718100Y6545345D01*
X2700507Y6497007D01*
X2655958Y6471287D01*
X2605300Y6480220D01*
X2583001Y6499879D01*
X2550230Y6543053D01*
X2543053Y6550230D01*
X2429791Y6636201D01*
X2420939Y6641189D01*
X2288458Y6693641D01*
X2279173Y6695999D01*
X2216365Y6703600D01*
X2205836Y6701150D01*
X2203200Y6697639D01*
X2203200Y6216459D01*
X2206897Y6206302D01*
X2212269Y6203200D01*
X2691933Y6203200D01*
X2694087Y6203984D01*
X2745527Y6203984D01*
X2786809Y6167462D01*
X2789017Y6163129D01*
X2789019Y6163126D01*
X2791708Y6157849D01*
X2882849Y6066708D01*
X2997694Y6008191D01*
X3003541Y6007265D01*
X3090058Y5993562D01*
X3090060Y5993562D01*
X3092976Y5993100D01*
X4057024Y5993100D01*
X4059940Y5993562D01*
X4059942Y5993562D01*
X4146459Y6007265D01*
X4152306Y6008191D01*
X4267151Y6066708D01*
X4272179Y6071736D01*
X4273060Y6072147D01*
X4276121Y6074371D01*
X4276553Y6073776D01*
X4318799Y6093476D01*
X4368486Y6080162D01*
X4378527Y6071736D01*
X4378956Y6071307D01*
X4388423Y6064428D01*
X4492576Y6011360D01*
X4503697Y6007747D01*
X4590097Y5994062D01*
X4595969Y5993600D01*
X4858541Y5993600D01*
X4868698Y5997297D01*
X4871800Y6002669D01*
X4871800Y7993140D01*
X4868103Y8003297D01*
X4862731Y8006399D01*
X4595971Y8006399D01*
X4590096Y8005936D01*
X4503696Y7992253D01*
X4492578Y7988641D01*
X4388423Y7935572D01*
X4378956Y7928693D01*
X4378527Y7928264D01*
X4378076Y7928054D01*
X4374176Y7925220D01*
X4373625Y7925978D01*
X4331907Y7906524D01*
X4282220Y7919838D01*
X4272179Y7928264D01*
X4267151Y7933292D01*
X4152306Y7991809D01*
X4146459Y7992735D01*
X4140833Y7994563D01*
X4141240Y7995816D01*
X4101942Y8017603D01*
X4083500Y8066934D01*
X4083500Y9602804D01*
X4083707Y9608377D01*
X4087142Y9654597D01*
X4087142Y9654598D01*
X4087539Y9659941D01*
X4085157Y9671100D01*
X4083500Y9686799D01*
X4083500Y9933066D01*
X4101093Y9981404D01*
X4141258Y10004130D01*
X4140833Y10005437D01*
X4146459Y10007265D01*
X4152306Y10008191D01*
X4267151Y10066708D01*
X4272179Y10071736D01*
X4273060Y10072147D01*
X4276121Y10074371D01*
X4276553Y10073776D01*
X4318799Y10093476D01*
X4368486Y10080162D01*
X4378527Y10071736D01*
X4378956Y10071307D01*
X4388423Y10064428D01*
X4492576Y10011360D01*
X4503697Y10007747D01*
X4590097Y9994062D01*
X4595969Y9993600D01*
X4858541Y9993600D01*
X4868698Y9997297D01*
X4871800Y10002669D01*
X4871800Y11000000D01*
X5278200Y11000000D01*
X5278200Y10006860D01*
G37*
G04 #@! TD.AperFunction*
G04 #@! TA.AperFunction,Conductor*
G36*
X-1823662Y5135607D02*
G01*
X-1797942Y5091058D01*
X-1796800Y5078000D01*
X-1796800Y4258066D01*
X-1793103Y4247909D01*
X-1789302Y4245714D01*
X-1720827Y4254001D01*
X-1711543Y4256359D01*
X-1709781Y4257056D01*
X-1708675Y4257087D01*
X-1706859Y4257548D01*
X-1706755Y4257140D01*
X-1658362Y4258491D01*
X-1618049Y4226538D01*
X-1606900Y4187136D01*
X-1606900Y3938500D01*
X-1624493Y3890162D01*
X-1669042Y3864442D01*
X-1682100Y3863300D01*
X-2021100Y3863300D01*
X-2069438Y3880893D01*
X-2095158Y3925442D01*
X-2096300Y3938500D01*
X-2096300Y5078000D01*
X-2078707Y5126338D01*
X-2034158Y5152058D01*
X-2021100Y5153200D01*
X-1872000Y5153200D01*
X-1823662Y5135607D01*
G37*
G04 #@! TD.AperFunction*
M02*
