G04 #@! TF.GenerationSoftware,KiCad,Pcbnew,(6.0.7-1)-1*
G04 #@! TF.CreationDate,2022-11-13T18:35:53+09:00*
G04 #@! TF.ProjectId,BM71-Dongle,424d3731-2d44-46f6-9e67-6c652e6b6963,V1.0*
G04 #@! TF.SameCoordinates,Original*
G04 #@! TF.FileFunction,Legend,Top*
G04 #@! TF.FilePolarity,Positive*
%FSLAX46Y46*%
G04 Gerber Fmt 4.6, Leading zero omitted, Abs format (unit mm)*
G04 Created by KiCad (PCBNEW (6.0.7-1)-1) date 2022-11-13 18:35:53*
%MOMM*%
%LPD*%
G01*
G04 APERTURE LIST*
%ADD10C,0.120000*%
%ADD11C,0.200000*%
G04 APERTURE END LIST*
D10*
X4988095Y14990476D02*
X5369047Y15257142D01*
X4988095Y15447619D02*
X5788095Y15447619D01*
X5788095Y15142857D01*
X5750000Y15066666D01*
X5711904Y15028571D01*
X5635714Y14990476D01*
X5521428Y14990476D01*
X5445238Y15028571D01*
X5407142Y15066666D01*
X5369047Y15142857D01*
X5369047Y15447619D01*
X5026190Y14342857D02*
X4988095Y14419047D01*
X4988095Y14571428D01*
X5026190Y14647619D01*
X5102380Y14685714D01*
X5407142Y14685714D01*
X5483333Y14647619D01*
X5521428Y14571428D01*
X5521428Y14419047D01*
X5483333Y14342857D01*
X5407142Y14304761D01*
X5330952Y14304761D01*
X5254761Y14685714D01*
X5026190Y14000000D02*
X4988095Y13923809D01*
X4988095Y13771428D01*
X5026190Y13695238D01*
X5102380Y13657142D01*
X5140476Y13657142D01*
X5216666Y13695238D01*
X5254761Y13771428D01*
X5254761Y13885714D01*
X5292857Y13961904D01*
X5369047Y14000000D01*
X5407142Y14000000D01*
X5483333Y13961904D01*
X5521428Y13885714D01*
X5521428Y13771428D01*
X5483333Y13695238D01*
X5026190Y13009523D02*
X4988095Y13085714D01*
X4988095Y13238095D01*
X5026190Y13314285D01*
X5102380Y13352380D01*
X5407142Y13352380D01*
X5483333Y13314285D01*
X5521428Y13238095D01*
X5521428Y13085714D01*
X5483333Y13009523D01*
X5407142Y12971428D01*
X5330952Y12971428D01*
X5254761Y13352380D01*
X5521428Y12742857D02*
X5521428Y12438095D01*
X5788095Y12628571D02*
X5102380Y12628571D01*
X5026190Y12590476D01*
X4988095Y12514285D01*
X4988095Y12438095D01*
X-5064285Y12742857D02*
X-5026190Y12704761D01*
X-4988095Y12590476D01*
X-4988095Y12514285D01*
X-5026190Y12400000D01*
X-5102380Y12323809D01*
X-5178571Y12285714D01*
X-5330952Y12247619D01*
X-5445238Y12247619D01*
X-5597619Y12285714D01*
X-5673809Y12323809D01*
X-5750000Y12400000D01*
X-5788095Y12514285D01*
X-5788095Y12590476D01*
X-5750000Y12704761D01*
X-5711904Y12742857D01*
X-4988095Y13200000D02*
X-5026190Y13123809D01*
X-5064285Y13085714D01*
X-5140476Y13047619D01*
X-5369047Y13047619D01*
X-5445238Y13085714D01*
X-5483333Y13123809D01*
X-5521428Y13200000D01*
X-5521428Y13314285D01*
X-5483333Y13390476D01*
X-5445238Y13428571D01*
X-5369047Y13466666D01*
X-5140476Y13466666D01*
X-5064285Y13428571D01*
X-5026190Y13390476D01*
X-4988095Y13314285D01*
X-4988095Y13200000D01*
X-5521428Y13809523D02*
X-4988095Y13809523D01*
X-5445238Y13809523D02*
X-5483333Y13847619D01*
X-5521428Y13923809D01*
X-5521428Y14038095D01*
X-5483333Y14114285D01*
X-5407142Y14152380D01*
X-4988095Y14152380D01*
X-5521428Y14419047D02*
X-5521428Y14723809D01*
X-4988095Y14533333D02*
X-5673809Y14533333D01*
X-5750000Y14571428D01*
X-5788095Y14647619D01*
X-5788095Y14723809D01*
X-4988095Y14990476D02*
X-5521428Y14990476D01*
X-5788095Y14990476D02*
X-5750000Y14952380D01*
X-5711904Y14990476D01*
X-5750000Y15028571D01*
X-5788095Y14990476D01*
X-5711904Y14990476D01*
X-5521428Y15714285D02*
X-4873809Y15714285D01*
X-4797619Y15676190D01*
X-4759523Y15638095D01*
X-4721428Y15561904D01*
X-4721428Y15447619D01*
X-4759523Y15371428D01*
X-5026190Y15714285D02*
X-4988095Y15638095D01*
X-4988095Y15485714D01*
X-5026190Y15409523D01*
X-5064285Y15371428D01*
X-5140476Y15333333D01*
X-5369047Y15333333D01*
X-5445238Y15371428D01*
X-5483333Y15409523D01*
X-5521428Y15485714D01*
X-5521428Y15638095D01*
X-5483333Y15714285D01*
X-609523Y5238095D02*
X-609523Y4590476D01*
X-571428Y4514285D01*
X-533333Y4476190D01*
X-457142Y4438095D01*
X-304761Y4438095D01*
X-228571Y4476190D01*
X-190476Y4514285D01*
X-152380Y4590476D01*
X-152380Y5238095D01*
X190476Y5161904D02*
X228571Y5200000D01*
X304761Y5238095D01*
X495238Y5238095D01*
X571428Y5200000D01*
X609523Y5161904D01*
X647619Y5085714D01*
X647619Y5009523D01*
X609523Y4895238D01*
X152380Y4438095D01*
X647619Y4438095D01*
X3466666Y4514285D02*
X3428571Y4476190D01*
X3314285Y4438095D01*
X3238095Y4438095D01*
X3123809Y4476190D01*
X3047619Y4552380D01*
X3009523Y4628571D01*
X2971428Y4780952D01*
X2971428Y4895238D01*
X3009523Y5047619D01*
X3047619Y5123809D01*
X3123809Y5200000D01*
X3238095Y5238095D01*
X3314285Y5238095D01*
X3428571Y5200000D01*
X3466666Y5161904D01*
X4228571Y4438095D02*
X3771428Y4438095D01*
X4000000Y4438095D02*
X4000000Y5238095D01*
X3923809Y5123809D01*
X3847619Y5047619D01*
X3771428Y5009523D01*
X3466666Y7938095D02*
X3200000Y8319047D01*
X3009523Y7938095D02*
X3009523Y8738095D01*
X3314285Y8738095D01*
X3390476Y8700000D01*
X3428571Y8661904D01*
X3466666Y8585714D01*
X3466666Y8471428D01*
X3428571Y8395238D01*
X3390476Y8357142D01*
X3314285Y8319047D01*
X3009523Y8319047D01*
X3771428Y8661904D02*
X3809523Y8700000D01*
X3885714Y8738095D01*
X4076190Y8738095D01*
X4152380Y8700000D01*
X4190476Y8661904D01*
X4228571Y8585714D01*
X4228571Y8509523D01*
X4190476Y8395238D01*
X3733333Y7938095D01*
X4228571Y7938095D01*
X-3733333Y7938095D02*
X-3999999Y8319047D01*
X-4190476Y7938095D02*
X-4190476Y8738095D01*
X-3885714Y8738095D01*
X-3809523Y8700000D01*
X-3771428Y8661904D01*
X-3733333Y8585714D01*
X-3733333Y8471428D01*
X-3771428Y8395238D01*
X-3809523Y8357142D01*
X-3885714Y8319047D01*
X-4190476Y8319047D01*
X-3466666Y8738095D02*
X-2971428Y8738095D01*
X-3238095Y8433333D01*
X-3123809Y8433333D01*
X-3047619Y8395238D01*
X-3009523Y8357142D01*
X-2971428Y8280952D01*
X-2971428Y8090476D01*
X-3009523Y8014285D01*
X-3047619Y7976190D01*
X-3123809Y7938095D01*
X-3352380Y7938095D01*
X-3428571Y7976190D01*
X-3466666Y8014285D01*
X-590476Y15838095D02*
X-590476Y16638095D01*
X-399999Y16638095D01*
X-285714Y16600000D01*
X-209523Y16523809D01*
X-171428Y16447619D01*
X-133333Y16295238D01*
X-133333Y16180952D01*
X-171428Y16028571D01*
X-209523Y15952380D01*
X-285714Y15876190D01*
X-399999Y15838095D01*
X-590476Y15838095D01*
X628571Y15838095D02*
X171428Y15838095D01*
X400000Y15838095D02*
X400000Y16638095D01*
X323809Y16523809D01*
X247619Y16447619D01*
X171428Y16409523D01*
X-3733333Y4514285D02*
X-3771428Y4476190D01*
X-3885714Y4438095D01*
X-3961904Y4438095D01*
X-4076190Y4476190D01*
X-4152380Y4552380D01*
X-4190476Y4628571D01*
X-4228571Y4780952D01*
X-4228571Y4895238D01*
X-4190476Y5047619D01*
X-4152380Y5123809D01*
X-4076190Y5200000D01*
X-3961904Y5238095D01*
X-3885714Y5238095D01*
X-3771428Y5200000D01*
X-3733333Y5161904D01*
X-3428571Y5161904D02*
X-3390476Y5200000D01*
X-3314285Y5238095D01*
X-3123809Y5238095D01*
X-3047619Y5200000D01*
X-3009523Y5161904D01*
X-2971428Y5085714D01*
X-2971428Y5009523D01*
X-3009523Y4895238D01*
X-3466666Y4438095D01*
X-2971428Y4438095D01*
X-133333Y9238095D02*
X-399999Y9619047D01*
X-590476Y9238095D02*
X-590476Y10038095D01*
X-285714Y10038095D01*
X-209523Y10000000D01*
X-171428Y9961904D01*
X-133333Y9885714D01*
X-133333Y9771428D01*
X-171428Y9695238D01*
X-209523Y9657142D01*
X-285714Y9619047D01*
X-590476Y9619047D01*
X628571Y9238095D02*
X171428Y9238095D01*
X400000Y9238095D02*
X400000Y10038095D01*
X323809Y9923809D01*
X247619Y9847619D01*
X171428Y9809523D01*
X-2500000Y16200000D02*
X-1800000Y16200000D01*
X-1800000Y16200000D02*
X-1800000Y11800000D01*
X-1800000Y11800000D02*
X-2500000Y11800000D01*
X-500000Y8250000D02*
X500000Y8250000D01*
X1500000Y6350000D02*
X1500000Y8250000D01*
X-1400000Y8250000D02*
X-1500000Y8250000D01*
X-1500000Y6350000D02*
X-1400000Y6350000D01*
X1500000Y8250000D02*
X1400000Y8250000D01*
X1400000Y6350000D02*
X1500000Y6350000D01*
X-1500000Y8250000D02*
X-1500000Y6350000D01*
D11*
X-850000Y5200000D02*
G75*
G03*
X-850000Y5200000I-100000J0D01*
G01*
D10*
X1900000Y5500000D02*
X5300000Y5500000D01*
X3700000Y6500000D02*
X3700000Y6100000D01*
X1900000Y7100000D02*
X5300000Y7100000D01*
X3700000Y6100000D02*
X3500000Y6300000D01*
X5300000Y7100000D02*
X5300000Y5500000D01*
X3500000Y6300000D02*
X3700000Y6500000D01*
X1900000Y7100000D02*
X1900000Y5500000D01*
X1900000Y9000000D02*
X1900000Y10600000D01*
X5300000Y9000000D02*
X1900000Y9000000D01*
X3500000Y9600000D02*
X3500000Y10000000D01*
X5300000Y10600000D02*
X1900000Y10600000D01*
X3700000Y9800000D02*
X3500000Y9600000D01*
X5300000Y9000000D02*
X5300000Y10600000D01*
X3500000Y10000000D02*
X3700000Y9800000D01*
X-1900000Y10600000D02*
X-1900000Y9000000D01*
X-3500000Y10000000D02*
X-3500000Y9600000D01*
X-3700000Y9800000D02*
X-3500000Y10000000D01*
X-3500000Y9600000D02*
X-3700000Y9800000D01*
X-5300000Y10600000D02*
X-1900000Y10600000D01*
X-5300000Y9000000D02*
X-1900000Y9000000D01*
X-5300000Y10600000D02*
X-5300000Y9000000D01*
X-3500000Y2500000D02*
X-3500000Y300000D01*
X3500000Y2500000D02*
X3500000Y300000D01*
X-800000Y12300000D02*
X800000Y12300000D01*
X800000Y12300000D02*
X800000Y15700000D01*
X0Y13900000D02*
X-200000Y14100000D01*
X200000Y14100000D02*
X0Y13900000D01*
X-800000Y12300000D02*
X-800000Y15700000D01*
X-200000Y14100000D02*
X200000Y14100000D01*
X-800000Y15700000D02*
X800000Y15700000D01*
X-1900000Y5500000D02*
X-1900000Y7100000D01*
X-3500000Y6300000D02*
X-3700000Y6100000D01*
X-3700000Y6100000D02*
X-3700000Y6500000D01*
X-5300000Y5500000D02*
X-5300000Y7100000D01*
X-3700000Y6500000D02*
X-3500000Y6300000D01*
X-1900000Y7100000D02*
X-5300000Y7100000D01*
X-1900000Y5500000D02*
X-5300000Y5500000D01*
X-100000Y10800000D02*
X-100000Y11200000D01*
X1700000Y10200000D02*
X-1700000Y10200000D01*
X1700000Y11800000D02*
X-1700000Y11800000D01*
X100000Y11000000D02*
X-100000Y10800000D01*
X1700000Y10200000D02*
X1700000Y11800000D01*
X-100000Y11200000D02*
X100000Y11000000D01*
X-1700000Y10200000D02*
X-1700000Y11800000D01*
X1800000Y16200000D02*
X2500000Y16200000D01*
X2500000Y11800000D02*
X1800000Y11800000D01*
X1800000Y11800000D02*
X1800000Y16200000D01*
M02*
