G04 #@! TF.GenerationSoftware,KiCad,Pcbnew,(6.0.9)*
G04 #@! TF.CreationDate,2023-01-08T15:38:34+09:00*
G04 #@! TF.ProjectId,BM71-Dongle,424d3731-2d44-46f6-9e67-6c652e6b6963,V2.0*
G04 #@! TF.SameCoordinates,Original*
G04 #@! TF.FileFunction,Legend,Top*
G04 #@! TF.FilePolarity,Positive*
%FSLAX46Y46*%
G04 Gerber Fmt 4.6, Leading zero omitted, Abs format (unit mm)*
G04 Created by KiCad (PCBNEW (6.0.9)) date 2023-01-08 15:38:34*
%MOMM*%
%LPD*%
G01*
G04 APERTURE LIST*
%ADD10C,0.120000*%
%ADD11C,0.100000*%
G04 APERTURE END LIST*
D10*
X2809523Y11838095D02*
X2542857Y12219047D01*
X2352380Y11838095D02*
X2352380Y12638095D01*
X2657142Y12638095D01*
X2733333Y12600000D01*
X2771428Y12561904D01*
X2809523Y12485714D01*
X2809523Y12371428D01*
X2771428Y12295238D01*
X2733333Y12257142D01*
X2657142Y12219047D01*
X2352380Y12219047D01*
X3457142Y11876190D02*
X3380952Y11838095D01*
X3228571Y11838095D01*
X3152380Y11876190D01*
X3114285Y11952380D01*
X3114285Y12257142D01*
X3152380Y12333333D01*
X3228571Y12371428D01*
X3380952Y12371428D01*
X3457142Y12333333D01*
X3495238Y12257142D01*
X3495238Y12180952D01*
X3114285Y12104761D01*
X3800000Y11876190D02*
X3876190Y11838095D01*
X4028571Y11838095D01*
X4104761Y11876190D01*
X4142857Y11952380D01*
X4142857Y11990476D01*
X4104761Y12066666D01*
X4028571Y12104761D01*
X3914285Y12104761D01*
X3838095Y12142857D01*
X3800000Y12219047D01*
X3800000Y12257142D01*
X3838095Y12333333D01*
X3914285Y12371428D01*
X4028571Y12371428D01*
X4104761Y12333333D01*
X4790476Y11876190D02*
X4714285Y11838095D01*
X4561904Y11838095D01*
X4485714Y11876190D01*
X4447619Y11952380D01*
X4447619Y12257142D01*
X4485714Y12333333D01*
X4561904Y12371428D01*
X4714285Y12371428D01*
X4790476Y12333333D01*
X4828571Y12257142D01*
X4828571Y12180952D01*
X4447619Y12104761D01*
X5057142Y12371428D02*
X5361904Y12371428D01*
X5171428Y12638095D02*
X5171428Y11952380D01*
X5209523Y11876190D01*
X5285714Y11838095D01*
X5361904Y11838095D01*
X-5057142Y11914285D02*
X-5095238Y11876190D01*
X-5209523Y11838095D01*
X-5285714Y11838095D01*
X-5400000Y11876190D01*
X-5476190Y11952380D01*
X-5514285Y12028571D01*
X-5552380Y12180952D01*
X-5552380Y12295238D01*
X-5514285Y12447619D01*
X-5476190Y12523809D01*
X-5400000Y12600000D01*
X-5285714Y12638095D01*
X-5209523Y12638095D01*
X-5095238Y12600000D01*
X-5057142Y12561904D01*
X-4600000Y11838095D02*
X-4676190Y11876190D01*
X-4714285Y11914285D01*
X-4752380Y11990476D01*
X-4752380Y12219047D01*
X-4714285Y12295238D01*
X-4676190Y12333333D01*
X-4600000Y12371428D01*
X-4485714Y12371428D01*
X-4409523Y12333333D01*
X-4371428Y12295238D01*
X-4333333Y12219047D01*
X-4333333Y11990476D01*
X-4371428Y11914285D01*
X-4409523Y11876190D01*
X-4485714Y11838095D01*
X-4600000Y11838095D01*
X-3990476Y12371428D02*
X-3990476Y11838095D01*
X-3990476Y12295238D02*
X-3952380Y12333333D01*
X-3876190Y12371428D01*
X-3761904Y12371428D01*
X-3685714Y12333333D01*
X-3647619Y12257142D01*
X-3647619Y11838095D01*
X-3380952Y12371428D02*
X-3076190Y12371428D01*
X-3266666Y11838095D02*
X-3266666Y12523809D01*
X-3228571Y12600000D01*
X-3152380Y12638095D01*
X-3076190Y12638095D01*
X-2809523Y11838095D02*
X-2809523Y12371428D01*
X-2809523Y12638095D02*
X-2847619Y12600000D01*
X-2809523Y12561904D01*
X-2771428Y12600000D01*
X-2809523Y12638095D01*
X-2809523Y12561904D01*
X-2085714Y12371428D02*
X-2085714Y11723809D01*
X-2123809Y11647619D01*
X-2161904Y11609523D01*
X-2238095Y11571428D01*
X-2352380Y11571428D01*
X-2428571Y11609523D01*
X-2085714Y11876190D02*
X-2161904Y11838095D01*
X-2314285Y11838095D01*
X-2390476Y11876190D01*
X-2428571Y11914285D01*
X-2466666Y11990476D01*
X-2466666Y12219047D01*
X-2428571Y12295238D01*
X-2390476Y12333333D01*
X-2314285Y12371428D01*
X-2161904Y12371428D01*
X-2085714Y12333333D01*
D11*
X-5125000Y5657142D02*
X-5039285Y5628571D01*
X-4896428Y5628571D01*
X-4839285Y5657142D01*
X-4810714Y5685714D01*
X-4782142Y5742857D01*
X-4782142Y5800000D01*
X-4810714Y5857142D01*
X-4839285Y5885714D01*
X-4896428Y5914285D01*
X-5010714Y5942857D01*
X-5067857Y5971428D01*
X-5096428Y6000000D01*
X-5125000Y6057142D01*
X-5125000Y6114285D01*
X-5096428Y6171428D01*
X-5067857Y6200000D01*
X-5010714Y6228571D01*
X-4867857Y6228571D01*
X-4782142Y6200000D01*
X-4582142Y6228571D02*
X-4439285Y5628571D01*
X-4325000Y6057142D01*
X-4210714Y5628571D01*
X-4067857Y6228571D01*
X-3867857Y6171428D02*
X-3839285Y6200000D01*
X-3782142Y6228571D01*
X-3639285Y6228571D01*
X-3582142Y6200000D01*
X-3553571Y6171428D01*
X-3525000Y6114285D01*
X-3525000Y6057142D01*
X-3553571Y5971428D01*
X-3896428Y5628571D01*
X-3525000Y5628571D01*
X-457142Y7178571D02*
X-457142Y6692857D01*
X-428571Y6635714D01*
X-399999Y6607142D01*
X-342857Y6578571D01*
X-228571Y6578571D01*
X-171428Y6607142D01*
X-142857Y6635714D01*
X-114285Y6692857D01*
X-114285Y7178571D01*
X142857Y7121428D02*
X171428Y7150000D01*
X228571Y7178571D01*
X371428Y7178571D01*
X428571Y7150000D01*
X457142Y7121428D01*
X485714Y7064285D01*
X485714Y7007142D01*
X457142Y6921428D01*
X114285Y6578571D01*
X485714Y6578571D01*
X1900000Y6685714D02*
X1871428Y6657142D01*
X1785714Y6628571D01*
X1728571Y6628571D01*
X1642857Y6657142D01*
X1585714Y6714285D01*
X1557142Y6771428D01*
X1528571Y6885714D01*
X1528571Y6971428D01*
X1557142Y7085714D01*
X1585714Y7142857D01*
X1642857Y7200000D01*
X1728571Y7228571D01*
X1785714Y7228571D01*
X1871428Y7200000D01*
X1900000Y7171428D01*
X2471428Y6628571D02*
X2128571Y6628571D01*
X2300000Y6628571D02*
X2300000Y7228571D01*
X2242857Y7142857D01*
X2185714Y7085714D01*
X2128571Y7057142D01*
X1100000Y7328571D02*
X900000Y7614285D01*
X757142Y7328571D02*
X757142Y7928571D01*
X985714Y7928571D01*
X1042857Y7900000D01*
X1071428Y7871428D01*
X1100000Y7814285D01*
X1100000Y7728571D01*
X1071428Y7671428D01*
X1042857Y7642857D01*
X985714Y7614285D01*
X757142Y7614285D01*
X1328571Y7871428D02*
X1357142Y7900000D01*
X1414285Y7928571D01*
X1557142Y7928571D01*
X1614285Y7900000D01*
X1642857Y7871428D01*
X1671428Y7814285D01*
X1671428Y7757142D01*
X1642857Y7671428D01*
X1300000Y7328571D01*
X1671428Y7328571D01*
X-1300000Y7328571D02*
X-1500000Y7614285D01*
X-1642857Y7328571D02*
X-1642857Y7928571D01*
X-1414285Y7928571D01*
X-1357142Y7900000D01*
X-1328571Y7871428D01*
X-1300000Y7814285D01*
X-1300000Y7728571D01*
X-1328571Y7671428D01*
X-1357142Y7642857D01*
X-1414285Y7614285D01*
X-1642857Y7614285D01*
X-1100000Y7928571D02*
X-728571Y7928571D01*
X-928571Y7700000D01*
X-842857Y7700000D01*
X-785714Y7671428D01*
X-757142Y7642857D01*
X-728571Y7585714D01*
X-728571Y7442857D01*
X-757142Y7385714D01*
X-785714Y7357142D01*
X-842857Y7328571D01*
X-1014285Y7328571D01*
X-1071428Y7357142D01*
X-1100000Y7385714D01*
X-442857Y10278571D02*
X-442857Y10878571D01*
X-300000Y10878571D01*
X-214285Y10850000D01*
X-157142Y10792857D01*
X-128571Y10735714D01*
X-100000Y10621428D01*
X-100000Y10535714D01*
X-128571Y10421428D01*
X-157142Y10364285D01*
X-214285Y10307142D01*
X-300000Y10278571D01*
X-442857Y10278571D01*
X471428Y10278571D02*
X128571Y10278571D01*
X299999Y10278571D02*
X299999Y10878571D01*
X242857Y10792857D01*
X185714Y10735714D01*
X128571Y10707142D01*
X-2099999Y6635714D02*
X-2128571Y6607142D01*
X-2214285Y6578571D01*
X-2271428Y6578571D01*
X-2357142Y6607142D01*
X-2414285Y6664285D01*
X-2442857Y6721428D01*
X-2471428Y6835714D01*
X-2471428Y6921428D01*
X-2442857Y7035714D01*
X-2414285Y7092857D01*
X-2357142Y7150000D01*
X-2271428Y7178571D01*
X-2214285Y7178571D01*
X-2128571Y7150000D01*
X-2099999Y7121428D01*
X-1871428Y7121428D02*
X-1842857Y7150000D01*
X-1785714Y7178571D01*
X-1642857Y7178571D01*
X-1585714Y7150000D01*
X-1557142Y7121428D01*
X-1528571Y7064285D01*
X-1528571Y7007142D01*
X-1557142Y6921428D01*
X-1899999Y6578571D01*
X-1528571Y6578571D01*
X-100000Y7328571D02*
X-300000Y7614285D01*
X-442857Y7328571D02*
X-442857Y7928571D01*
X-214285Y7928571D01*
X-157142Y7900000D01*
X-128571Y7871428D01*
X-100000Y7814285D01*
X-100000Y7728571D01*
X-128571Y7671428D01*
X-157142Y7642857D01*
X-214285Y7614285D01*
X-442857Y7614285D01*
X471428Y7328571D02*
X128571Y7328571D01*
X299999Y7328571D02*
X299999Y7928571D01*
X242857Y7842857D01*
X185714Y7785714D01*
X128571Y7757142D01*
X3525000Y5657142D02*
X3610714Y5628571D01*
X3753571Y5628571D01*
X3810714Y5657142D01*
X3839285Y5685714D01*
X3867857Y5742857D01*
X3867857Y5800000D01*
X3839285Y5857142D01*
X3810714Y5885714D01*
X3753571Y5914285D01*
X3639285Y5942857D01*
X3582142Y5971428D01*
X3553571Y6000000D01*
X3525000Y6057142D01*
X3525000Y6114285D01*
X3553571Y6171428D01*
X3582142Y6200000D01*
X3639285Y6228571D01*
X3782142Y6228571D01*
X3867857Y6200000D01*
X4067857Y6228571D02*
X4210714Y5628571D01*
X4325000Y6057142D01*
X4439285Y5628571D01*
X4582142Y6228571D01*
X5125000Y5628571D02*
X4782142Y5628571D01*
X4953571Y5628571D02*
X4953571Y6228571D01*
X4896428Y6142857D01*
X4839285Y6085714D01*
X4782142Y6057142D01*
D10*
X-4425000Y7200000D02*
X-4225000Y7200000D01*
X-4425000Y10800000D02*
X-4225000Y10800000D01*
X-2825000Y10800000D02*
X-2825000Y7200000D01*
X-500000Y6400000D02*
X500000Y6400000D01*
X1500000Y4500000D02*
X1500000Y6400000D01*
X-1400000Y6400000D02*
X-1500000Y6400000D01*
X-1500000Y4500000D02*
X-1400000Y4500000D01*
X1500000Y6400000D02*
X1400000Y6400000D01*
X1400000Y4500000D02*
X1500000Y4500000D01*
X-1500000Y6400000D02*
X-1500000Y4500000D01*
X2500000Y6500000D02*
X1500000Y6500000D01*
X2500000Y4500000D02*
X1500000Y4500000D01*
X2500000Y4500000D02*
X2500000Y6500000D01*
X1500000Y4500000D02*
X1500000Y6500000D01*
X1500000Y8100000D02*
X500000Y8100000D01*
X1500000Y8100000D02*
X1500000Y10100000D01*
X1500000Y10100000D02*
X500000Y10100000D01*
X500000Y8100000D02*
X500000Y10100000D01*
X-500000Y8100000D02*
X-500000Y10100000D01*
X-1500000Y8100000D02*
X-1500000Y10100000D01*
X-500000Y8100000D02*
X-1500000Y8100000D01*
X-500000Y10100000D02*
X-1500000Y10100000D01*
X-3500000Y2500000D02*
X-3500000Y300000D01*
X3500000Y2500000D02*
X3500000Y300000D01*
X-1700000Y12600000D02*
X-1700000Y11000000D01*
X-1700000Y11000000D02*
X1700000Y11000000D01*
X-100000Y11800000D02*
X100000Y12000000D01*
X100000Y11600000D02*
X-100000Y11800000D01*
X-1700000Y12600000D02*
X1700000Y12600000D01*
X100000Y12000000D02*
X100000Y11600000D01*
X1700000Y12600000D02*
X1700000Y11000000D01*
X-2500000Y6450000D02*
X-2500000Y4450000D01*
X-2500000Y4450000D02*
X-1500000Y4450000D01*
X-2500000Y6450000D02*
X-1500000Y6450000D01*
X-1500000Y6450000D02*
X-1500000Y4450000D01*
X-500000Y10100000D02*
X500000Y10100000D01*
X-500000Y8100000D02*
X500000Y8100000D01*
X-500000Y10100000D02*
X-500000Y8100000D01*
X500000Y10100000D02*
X500000Y8100000D01*
X4425000Y10800000D02*
X4225000Y10800000D01*
X4425000Y7200000D02*
X4225000Y7200000D01*
X2825000Y7200000D02*
X2825000Y10800000D01*
M02*
